<svg xmlns="http://www.w3.org/2000/svg" xmlns:xlink="http://www.w3.org/1999/xlink" width="32" height="32" viewBox="0 0 32 32"><defs><clipPath id="b"><rect width="32" height="32"/></clipPath></defs><g id="a" clip-path="url(#b)"><g transform="translate(-1.301 -8.391)"><path d="M24.15,37.137v.754a.474.474,0,1,1-.948,0v-.754a.474.474,0,1,1,.948,0Zm0-2.928v.754a.474.474,0,1,1-.948,0v-.754a.474.474,0,1,1,.948,0ZM17.341,30.2a.478.478,0,0,1-.476.484h-.737a.484.484,0,0,1,0-.968h.737A.479.479,0,0,1,17.341,30.2Zm2.87,0a.477.477,0,0,1-.472.484H19a.484.484,0,0,1,0-.968h.741A.478.478,0,0,1,20.21,30.2Zm-5.739,0a.481.481,0,0,1-.476.484h-.737a.484.484,0,0,1,0-.968H14A.482.482,0,0,1,14.471,30.2Zm9.679,1.087v.754a.474.474,0,1,1-.948,0v-.754a.474.474,0,1,1,.948,0ZM23.084,30.2a.481.481,0,0,1-.476.484h-.741a.484.484,0,0,1,0-.968h.741A.482.482,0,0,1,23.084,30.2Zm2.87,0a.481.481,0,0,1-.476.484h-.737a.484.484,0,0,1,0-.968h.737A.482.482,0,0,1,25.954,30.2Zm-1.8-7.7v.754a.474.474,0,1,1-.948,0V22.5a.474.474,0,1,1,.948,0Zm0,5.855v.754a.474.474,0,1,1-.948,0v-.754a.474.474,0,1,1,.948,0Zm0-2.928v.754a.474.474,0,1,1-.948,0v-.754a.474.474,0,1,1,.948,0ZM9.16,39.143H38.194L36.68,34.33a28.08,28.08,0,0,1-2.763,3.692.933.933,0,0,1-1.57-.013c-2.092-2.542-5.576-7.454-5.382-11.806a6.823,6.823,0,0,1,2.41-4.954H22.236q-.3.735-.693,1.5a26.6,26.6,0,0,1-3.691,5.324.933.933,0,0,1-1.57-.013,34.865,34.865,0,0,1-2.533-3.479Zm2.683-22.85a5.714,5.714,0,0,1,3.1-4.92v1.179A4.165,4.165,0,0,0,13,16.1a4.077,4.077,0,1,0,6.2-3.548V11.373A5.7,5.7,0,0,1,22.3,16.4c.125,4.668-3.914,9.616-5.158,11.02-.035.04-.06.065-.076.082a.852.852,0,0,1-.064-.07,33.289,33.289,0,0,1-2.957-4.185.381.381,0,0,0-.071-.122,13.278,13.278,0,0,1-2.134-6.832Zm6.4-6.561H15.894v5.883h2.354Zm.948,5.883h.967a3.194,3.194,0,0,0-.967-1.859Zm.967.967H13.979a3.119,3.119,0,0,0,6.183,0Zm-6.183-.967h.967V13.757A3.19,3.19,0,0,0,13.979,15.616Zm17.979,4.071h2.354v5.882H31.958Zm-1.915,5.882a3.194,3.194,0,0,1,.967-1.859v1.859Zm5.221,0V23.71a3.207,3.207,0,0,1,.967,1.859Zm.967.967a3.121,3.121,0,0,1-6.186,0Zm2.136-.183c.127,4.668-3.912,9.616-5.157,11.022-.032.039-.06.065-.076.083-.016-.015-.035-.037-.064-.07-2.006-2.433-5.339-7.118-5.161-11.141a5.7,5.7,0,0,1,3.1-4.918v1.177a4.163,4.163,0,0,0-1.95,3.548,4.077,4.077,0,1,0,8.153,0,4.166,4.166,0,0,0-1.949-3.548V21.328a5.7,5.7,0,0,1,3.1,5.026Zm-1.042,6.872c.095-.174.191-.349.281-.529a13.279,13.279,0,0,0,1.708-6.371,6.626,6.626,0,0,0-4.05-6.05V19.2a.481.481,0,0,0-.476-.484h-3.3a.48.48,0,0,0-.476.484v1.072L31,20.282H22.6a11.243,11.243,0,0,0,.649-3.909,6.623,6.623,0,0,0-4.055-6.05V9.25a.477.477,0,0,0-.472-.484h-3.3a.481.481,0,0,0-.476.484v1.073A6.631,6.631,0,0,0,10.9,16.25a14.12,14.12,0,0,0,2.2,7.242L8.062,39.479a.481.481,0,0,0,.067.432.466.466,0,0,0,.38.2H38.844a.468.468,0,0,0,.384-.2.477.477,0,0,0,.067-.432Z" transform="translate(-6.362 0)" fill="#e65863" stroke="#e65863" stroke-width="0.6" fill-rule="evenodd"/></g></g></svg>