<svg xmlns="http://www.w3.org/2000/svg" xmlns:xlink="http://www.w3.org/1999/xlink" width="32" height="32" viewBox="0 0 32 32"><defs><clipPath id="b"><rect width="32" height="32"/></clipPath></defs><g id="a" clip-path="url(#b)"><g transform="translate(-4.313 -5.265)"><path d="M33.4,8.995H30.922V7.387a1.823,1.823,0,0,0-1.8-1.84h-.843a1.823,1.823,0,0,0-1.8,1.84V8.995H22.524V7.387a1.823,1.823,0,0,0-1.8-1.84h-.843a1.823,1.823,0,0,0-1.8,1.84V8.995H14.126V7.387a1.823,1.823,0,0,0-1.8-1.84h-.843a1.823,1.823,0,0,0-1.8,1.84V8.995H7.209a2.616,2.616,0,0,0-2.583,2.641V34.343a2.616,2.616,0,0,0,2.583,2.641H33.386a2.616,2.616,0,0,0,2.583-2.641V11.636a2.616,2.616,0,0,0-2.583-2.641ZM27.566,7.387a.73.73,0,0,1,.719-.735h.843a.73.73,0,0,1,.719.735v4.288a.73.73,0,0,1-.719.735h-.843a.73.73,0,0,1-.719-.735Zm-8.393,0a.73.73,0,0,1,.719-.735h.843a.73.73,0,0,1,.719.735v4.288a.73.73,0,0,1-.719.735h-.843a.73.73,0,0,1-.719-.735Zm-8.393,0a.73.73,0,0,1,.719-.735h.843a.73.73,0,0,1,.719.735v4.288a.73.73,0,0,1-.719.735H11.5a.73.73,0,0,1-.719-.735ZM7.225,10.1H9.7v1.575a1.823,1.823,0,0,0,1.8,1.84h.843a1.823,1.823,0,0,0,1.8-1.84V10.1H18.1v1.575a1.823,1.823,0,0,0,1.8,1.84h.843a1.823,1.823,0,0,0,1.8-1.84V10.1H26.5v1.575a1.823,1.823,0,0,0,1.8,1.84h.843a1.823,1.823,0,0,0,1.8-1.84V10.1h2.475a1.523,1.523,0,0,1,1.5,1.536V15H5.728V11.636a1.523,1.523,0,0,1,1.5-1.536ZM33.4,35.879H7.231a1.523,1.523,0,0,1-1.5-1.536V16.107H34.91V34.343a1.523,1.523,0,0,1-1.5,1.536Z" transform="translate(0 0)" fill="#e65863" stroke="#e65863" stroke-width="0.4"/></g><path d="M22.091,18.041H18.546a1.61,1.61,0,0,0-1.589,1.625v3.625a1.61,1.61,0,0,0,1.589,1.625h3.545a1.61,1.61,0,0,0,1.589-1.625V19.666A1.61,1.61,0,0,0,22.091,18.041Zm.508,5.25a.513.513,0,0,1-.508.519H18.546a.513.513,0,0,1-.508-.519V19.666a.513.513,0,0,1,.508-.519h3.545a.513.513,0,0,1,.508.519Zm-9.046-5.25H10.008a1.61,1.61,0,0,0-1.589,1.625v3.625a1.61,1.61,0,0,0,1.589,1.625h3.545a1.61,1.61,0,0,0,1.589-1.625V19.666a1.61,1.61,0,0,0-1.589-1.625Zm.508,5.25a.513.513,0,0,1-.508.519H10.008a.513.513,0,0,1-.508-.519V19.666a.513.513,0,0,1,.508-.519h3.545a.513.513,0,0,1,.508.519Zm16.569-5.25H27.085A1.61,1.61,0,0,0,25.5,19.666v3.625a1.61,1.61,0,0,0,1.589,1.625H30.63a1.61,1.61,0,0,0,1.589-1.625V19.666A1.61,1.61,0,0,0,30.63,18.041Zm.508,5.25a.513.513,0,0,1-.508.519H27.085a.513.513,0,0,1-.508-.519V19.666a.513.513,0,0,1,.508-.519H30.63a.513.513,0,0,1,.508.519Zm-9.046,3.365H18.546a1.61,1.61,0,0,0-1.589,1.625v3.625a1.61,1.61,0,0,0,1.589,1.625h3.545a1.61,1.61,0,0,0,1.589-1.625V28.281A1.61,1.61,0,0,0,22.091,26.656Zm.508,5.25a.513.513,0,0,1-.508.519H18.546a.513.513,0,0,1-.508-.519V28.281a.513.513,0,0,1,.508-.519h3.545a.513.513,0,0,1,.508.519Zm-9.046-5.25H10.008a1.61,1.61,0,0,0-1.589,1.625v3.625a1.61,1.61,0,0,0,1.589,1.625h3.545a1.61,1.61,0,0,0,1.589-1.625V28.281a1.61,1.61,0,0,0-1.589-1.625Zm.508,5.25a.513.513,0,0,1-.508.519H10.008a.513.513,0,0,1-.508-.519V28.281a.513.513,0,0,1,.508-.519h3.545a.513.513,0,0,1,.508.519Zm16.569-5.25H27.085A1.61,1.61,0,0,0,25.5,28.281v3.625a1.61,1.61,0,0,0,1.589,1.625H30.63a1.61,1.61,0,0,0,1.589-1.625V28.281A1.61,1.61,0,0,0,30.63,26.656Zm.508,5.25a.513.513,0,0,1-.508.519H27.085a.513.513,0,0,1-.508-.519V28.281a.513.513,0,0,1,.508-.519H30.63a.513.513,0,0,1,.508.519ZM13.132,20.434a.56.56,0,0,1,.043.779l-1.3,1.492a.538.538,0,0,1-.389.188h-.011a.525.525,0,0,1-.384-.166L10.4,22a.559.559,0,0,1,.005-.779.53.53,0,0,1,.762.006l.286.3.913-1.05a.531.531,0,0,1,.762-.044ZM21.6,29.618l-.519.53.519.531a.559.559,0,0,1,0,.779.525.525,0,0,1-.384.16.547.547,0,0,1-.384-.16l-.519-.53-.519.53a.525.525,0,0,1-.384.16.547.547,0,0,1-.384-.16.559.559,0,0,1,0-.779l.519-.531-.519-.53a.559.559,0,0,1,0-.779.53.53,0,0,1,.762,0l.519.53.519-.53a.53.53,0,0,1,.762,0,.559.559,0,0,1,0,.779Zm.065-9.184a.56.56,0,0,1,.043.779l-1.3,1.492a.538.538,0,0,1-.389.188h-.011a.525.525,0,0,1-.384-.166L18.935,22a.554.554,0,0,1,.011-.779.525.525,0,0,1,.762.011l.286.3.913-1.05a.531.531,0,0,1,.762-.044ZM30.2,29.049a.56.56,0,0,1,.043.779l-1.3,1.492a.538.538,0,0,1-.389.188h-.011a.525.525,0,0,1-.384-.166l-.692-.724a.559.559,0,0,1,.005-.779.53.53,0,0,1,.762.006l.286.3.913-1.05a.531.531,0,0,1,.762-.044Zm-17.077,0a.56.56,0,0,1,.043.779l-1.3,1.492a.538.538,0,0,1-.389.188h-.011a.525.525,0,0,1-.384-.166l-.692-.724a.559.559,0,0,1,.005-.779.53.53,0,0,1,.762.006l.286.3.913-1.05a.531.531,0,0,1,.762-.044ZM30.133,21l-.519.53.519.531a.559.559,0,0,1,0,.779.525.525,0,0,1-.384.16.547.547,0,0,1-.384-.16l-.519-.531-.519.531a.525.525,0,0,1-.384.16.547.547,0,0,1-.384-.16.559.559,0,0,1,0-.779l.519-.531L27.561,21a.559.559,0,0,1,0-.779.53.53,0,0,1,.762,0l.519.53.519-.53a.53.53,0,0,1,.762,0,.559.559,0,0,1,0,.779Z" transform="translate(-4.319 -5.265)" fill="#e65863"/></g></svg>