<svg xmlns="http://www.w3.org/2000/svg" xmlns:xlink="http://www.w3.org/1999/xlink" width="32" height="32" viewBox="0 0 32 32"><defs><clipPath id="b"><rect width="32" height="32"/></clipPath></defs><g id="a" clip-path="url(#b)"><g transform="translate(0.001 -1.457)"><path d="M31.562,16.026A.438.438,0,0,0,32,15.589V9.628a.438.438,0,0,0-.437-.437H27.715V6.817a2.571,2.571,0,1,0-3.689,0V9.189H7.972V6.817a2.57,2.57,0,1,0-3.689,0V9.192H.436A.438.438,0,0,0,0,9.628v5.961a.438.438,0,0,0,.437.437H4.283v3.215H.436A.438.438,0,0,0,0,19.68v5.961a.438.438,0,0,0,.437.438H4.283V29.7H2.109a.438.438,0,0,0-.437.438v2.312a.438.438,0,0,0,.437.438h8.036a.438.438,0,0,0,.437-.437V30.133a.438.438,0,0,0-.437-.437H7.971V26.079H24.026V29.7H21.853a.438.438,0,0,0-.437.438v2.312a.438.438,0,0,0,.438.438h8.036a.438.438,0,0,0,.438-.437V30.133a.438.438,0,0,0-.437-.437H27.715V26.079h3.846A.438.438,0,0,0,32,25.641V19.68a.438.438,0,0,0-.437-.437H27.715V16.028h3.846Zm-.437-.875H25.9l4.542-5.086h.679Zm-1.852,4.966L24.729,25.2h-3.6l4.542-5.086Zm-4.774,0L19.955,25.2H16.63l4.544-5.086ZM11.861,25.2,16.4,20.118H20L15.458,25.2Zm-4.5,0,4.544-5.086h3.323L10.686,25.2Zm-4.772,0,4.544-5.086h3.6L6.188,25.2Zm5.382-5.961V16.028H24.026v3.215ZM2.589,15.152l4.544-5.086h3.6L6.188,15.152Zm9.316-5.086h3.323l-4.542,5.086H7.36Zm8.1,0-4.544,5.086h-3.6L16.4,10.065Zm4.5,0-4.542,5.086H16.63l4.544-5.086Zm-3.369,5.086,4.542-5.086h3.6l-4.542,5.086ZM25.87,3.333a1.695,1.695,0,1,1-1.695,1.695A1.7,1.7,0,0,1,25.87,3.333ZM24.9,7.409a2.565,2.565,0,0,0,1.937,0V9.19H24.9ZM6.128,3.333A1.695,1.695,0,1,1,4.433,5.028,1.7,1.7,0,0,1,6.128,3.333Zm-.97,4.076a2.565,2.565,0,0,0,1.937,0V9.19H5.158ZM.874,10.065H5.959L1.416,15.152H.874Zm4.284,5.961H7.1v3.215H5.158ZM.874,20.118H5.959L1.416,25.2H.874Zm8.833,11.89H2.547V30.571H9.708ZM7.1,29.7H5.158V26.079H7.1Zm22.355,2.312H22.29V30.571h7.161ZM26.84,29.7H24.9V26.079H26.84ZM31.124,25.2H25.9l4.542-5.086h.679ZM26.84,19.243H24.9V16.028H26.84Z" fill="#4b5569" stroke="#4b5569" stroke-width="0.4"/></g></g></svg>