<svg xmlns="http://www.w3.org/2000/svg" xmlns:xlink="http://www.w3.org/1999/xlink" width="32" height="32" viewBox="0 0 32 32"><defs><clipPath id="b"><rect width="32" height="32"/></clipPath></defs><g id="a" clip-path="url(#b)"><g transform="translate(-2.369 -2.372)"><path d="M49.24,32.481A4.24,4.24,0,1,0,45,28.24a4.24,4.24,0,0,0,4.24,4.24Zm0-7.421a3.18,3.18,0,1,1-3.18,3.18A3.18,3.18,0,0,1,49.24,25.06Z" transform="translate(-19.741 -9.869)" fill="#e65863" stroke="#e65863" stroke-width="0.6"/><path d="M25.259,18.9v-1.06H18.9V7.77h6.4a4.24,4.24,0,1,0,0-1.06H17.839V17.841h-6.4a4.24,4.24,0,1,0,0,1.06h6.4V30.033H25.3a4.24,4.24,0,1,0,0-1.06H18.9V18.9ZM29.5,4.06a3.18,3.18,0,1,1-3.18,3.18A3.18,3.18,0,0,1,29.5,4.06ZM7.238,21.552a3.18,3.18,0,1,1,3.18-3.18A3.18,3.18,0,0,1,7.238,21.552ZM29.5,26.322a3.18,3.18,0,1,1-3.18,3.18A3.18,3.18,0,0,1,29.5,26.322Z" transform="translate(0)" fill="#e65863" stroke="#e65863" stroke-width="0.6"/></g></g></svg>