<svg xmlns="http://www.w3.org/2000/svg" xmlns:xlink="http://www.w3.org/1999/xlink" width="32" height="32" viewBox="0 0 32 32"><defs><clipPath id="b"><rect width="32" height="32"/></clipPath></defs><g id="a" clip-path="url(#b)"><g transform="translate(-8.796 -19)"><path d="M51,25.71A6.716,6.716,0,0,0,44.29,19H25.71A6.716,6.716,0,0,0,19,25.71V44.29A6.716,6.716,0,0,0,25.71,51h5.161a1.548,1.548,0,1,0,0-3.1H25.71A3.617,3.617,0,0,1,22.1,44.29V25.71A3.617,3.617,0,0,1,25.71,22.1H44.29A3.617,3.617,0,0,1,47.9,25.71v5.161a1.548,1.548,0,1,0,3.1,0Z" transform="translate(-10.204 0)" fill="#f25b67"/><path d="M58.226,51a1.553,1.553,0,0,0-1.548,1.548v4.129H52.548a1.548,1.548,0,1,0,0,3.1h4.129V63.9a1.548,1.548,0,0,0,3.1,0V59.774H63.9a1.548,1.548,0,0,0,0-3.1H59.774V52.548A1.553,1.553,0,0,0,58.226,51Z" transform="translate(-25.688 -15.484)" fill="#f25b67"/></g></g></svg>