<svg xmlns="http://www.w3.org/2000/svg" xmlns:xlink="http://www.w3.org/1999/xlink" width="32" height="32" viewBox="0 0 32 32"><defs><clipPath id="b"><rect width="32" height="32"/></clipPath></defs><g id="a" clip-path="url(#b)"><g transform="translate(0.156 0.172)"><path d="M33.5,35.107a.6.6,0,0,0-.567.641l1.112,18.511a.605.605,0,0,0,.6.567h.038a.6.6,0,0,0,.566-.639L34.141,35.674a.6.6,0,0,0-.639-.567Z" transform="translate(-24.715 -25.423)" fill="#e0842a" stroke="#e0842a" stroke-width="0.3"/><path d="M45.631,14.383a2.473,2.473,0,0,0-2.248-1.3H37.159v-.817A2.444,2.444,0,0,0,34.575,10H26.91a2.444,2.444,0,0,0-2.584,2.265v.817H18.1a2.473,2.473,0,0,0-2.248,1.3l-.79,1.622a1.551,1.551,0,0,0,.169,1.636,2.064,2.064,0,0,0,1.65.777h.695L19.5,38.747v0a3.464,3.464,0,0,0,3.584,2.892H38.405a3.464,3.464,0,0,0,3.584-2.892L43.907,18.42H44.6a2.061,2.061,0,0,0,1.648-.777,1.555,1.555,0,0,0,.171-1.636ZM25.689,12.265a1.152,1.152,0,0,1,1.22-1.068h7.666a1.152,1.152,0,0,1,1.22,1.068v.817H25.689ZM40.63,38.651a2.15,2.15,0,0,1-2.225,1.794H23.08a2.15,2.15,0,0,1-2.225-1.794L18.948,18.42H42.537Zm4.484-21.668h0a.628.628,0,0,1-.511.241H16.884a.64.64,0,0,1-.511-.241.48.48,0,0,1-.053-.508l.79-1.622a1.094,1.094,0,0,1,.992-.575H43.383a1.094,1.094,0,0,1,.992.575l.79,1.622a.474.474,0,0,1-.053.508Z" transform="translate(-14.906 -10)" fill="#e0842a" stroke="#e0842a" stroke-width="0.3"/><path d="M61.83,54.824h.038a.606.606,0,0,0,.6-.569l1.114-18.511h0a.6.6,0,1,0-1.206-.073L61.264,54.184a.6.6,0,0,0,.566.641Z" transform="translate(-40.129 -25.421)" fill="#e0842a" stroke="#e0842a" stroke-width="0.3"/><path d="M48.488,35.894V54.286a.6.6,0,0,0,1.209,0V35.894a.6.6,0,0,0-1.209,0Z" transform="translate(-33.256 -25.533)" fill="#e0842a" stroke="#e0842a" stroke-width="0.3"/></g></g></svg>