<svg xmlns="http://www.w3.org/2000/svg" xmlns:xlink="http://www.w3.org/1999/xlink" width="32" height="32" viewBox="0 0 32 32"><defs><clipPath id="b"><rect width="32" height="32"/></clipPath></defs><g id="a" clip-path="url(#b)"><g transform="translate(0.172 0.156)"><path d="M45.5,18.25a4.352,4.352,0,0,0-3.087,1.274L40.9,21.04,29.208,32.734a1,1,0,0,0-.282.563l-.806,5.608a1,1,0,0,0,1.129,1.131l5.606-.806a.994.994,0,0,0,.563-.284L48.623,25.735a4.387,4.387,0,0,0,0-6.177l-.037-.035A4.352,4.352,0,0,0,45.5,18.25ZM24.279,20.035a6.043,6.043,0,0,0-6.025,6.031V43.879a6.041,6.041,0,0,0,6.025,6.027H42.088a6.041,6.041,0,0,0,6.027-6.027V32.86h0a1,1,0,1,0-2,0V43.879a4.017,4.017,0,0,1-4.031,4.033H24.277a4.017,4.017,0,0,1-4.031-4.033V26.067a4.02,4.02,0,0,1,4.031-4.037H35.293a1,1,0,0,0,0-1.994Zm21.222.2a2.363,2.363,0,0,1,1.678.7l.035.041a2.356,2.356,0,0,1,0,3.353l-.812.808-3.389-3.388v0l.81-.814a2.362,2.362,0,0,1,1.676-.7Zm-3.9,2.921,3.393,3.394L34.242,37.3l-3.957.571.57-3.963Z" transform="translate(-18.254 -18.25)" fill="#23accf" stroke="#23accf" stroke-width="0.3"/></g></g></svg>