<svg xmlns="http://www.w3.org/2000/svg" xmlns:xlink="http://www.w3.org/1999/xlink" width="32" height="32" viewBox="0 0 32 32"><defs><clipPath id="b"><rect width="32" height="32"/></clipPath></defs><g id="a" clip-path="url(#b)"><g transform="translate(0.141 0.374)"><path d="M31.1,5.843a1.539,1.539,0,0,0-.2-.121l.235-.233a1.988,1.988,0,0,0,0-2.823L29.032.585a2.026,2.026,0,0,0-2.846,0L19.343,7.369,10.96,5.29a1.594,1.594,0,0,0-.786.008L1.183,7.637A1.575,1.575,0,0,0,0,9.162V29.613a1.566,1.566,0,0,0,.617,1.247,1.593,1.593,0,0,0,1.373.274l8.458-2.2a.545.545,0,0,1,.262,0l10.048,2.492a1.621,1.621,0,0,0,.382.046,1.532,1.532,0,0,0,.4-.052l8.991-2.344a1.575,1.575,0,0,0,1.183-1.531V7.091a1.558,1.558,0,0,0-.62-1.248ZM26.933,1.326a.962.962,0,0,1,1.351,0l2.1,2.083a.943.943,0,0,1,0,1.34l-1.2,1.19L25.732,2.518ZM10.044,25.807a3.881,3.881,0,0,0-.409.079L3.172,27.573v-17.2l6.872-1.788ZM11.1,8.568l5.624,1.4-2.108,2.089a3.319,3.319,0,0,0-.835,1.426l-1.05,3.787a1.277,1.277,0,0,0,1.231,1.611,1.3,1.3,0,0,0,.35-.048l3.819-1.04a3.357,3.357,0,0,0,1.438-.831l1.047-1.039V28.139l-9.14-2.265q-.186-.044-.376-.069Zm8.109,7.264-1.353-1.341,7.126-7.068,1.351,1.34ZM14.8,13.761a2.276,2.276,0,0,1,.255-.567l3.362,3.334a2.27,2.27,0,0,1-.568.252l-3.817,1.041a.223.223,0,0,1-.279-.276Zm2.31-.012-1.353-1.342,7.126-7.066,1.351,1.34Zm4.563,1.122,5.4-5.354,1.477-.387v17.2l-6.872,1.793Zm5.408-6.847L23.63,4.6l1.352-1.34L28.432,6.68Zm3.579,19.519a.525.525,0,0,1-.393.51l-9,2.346a.533.533,0,0,1-.264,0L10.961,27.909a1.593,1.593,0,0,0-.787.007l-8.456,2.2a.532.532,0,0,1-.455-.092.523.523,0,0,1-.206-.413V9.162a.525.525,0,0,1,.393-.51l9-2.34a.546.546,0,0,1,.262,0l7.762,1.925L17.6,9.1,10.939,7.447a1.418,1.418,0,0,0-.7,0L2.9,9.358a1.058,1.058,0,0,0-.786,1.015v17.2a1.048,1.048,0,0,0,.412.829,1.067,1.067,0,0,0,.913.186L9.9,26.9a2.686,2.686,0,0,1,1.322-.01l9.65,2.391a1.06,1.06,0,0,0,.257.031,1.094,1.094,0,0,0,.264-.033l7.422-1.936a1.059,1.059,0,0,0,.787-1.015V9.13a1.045,1.045,0,0,0-.321-.753,1.062,1.062,0,0,0-.768-.3l1.511-1.5a.518.518,0,0,1,.635.507Z" transform="translate(0 0)" fill="#4b5569"/></g></g></svg>