<svg xmlns="http://www.w3.org/2000/svg" xmlns:xlink="http://www.w3.org/1999/xlink" width="32" height="32" viewBox="0 0 32 32"><defs><clipPath id="b"><rect width="32" height="32"/></clipPath></defs><g id="a" clip-path="url(#b)"><g transform="translate(-8.499 -9.415)"><path d="M39.92,9.5H33.752a.578.578,0,0,0-.578.578V16.9l-5.59,1a.578.578,0,0,0-.578.578v4.819h-5.59a.578.578,0,0,0-.578.578v4.819h-5.59a.578.578,0,0,0-.578.578V34.09H9.077a.578.578,0,0,0-.578.578v6.169a.578.578,0,0,0,.578.578H39.92a.578.578,0,0,0,.578-.578V10.078A.578.578,0,0,0,39.92,9.5Zm-.578,30.758H12.74V38.331h5.59a.578.578,0,0,0,.578-.578V32.933H24.5a.578.578,0,0,0,.578-.578V27.536h5.59a.578.578,0,0,0,.578-.578V22.138h5.59a.578.578,0,0,0,.578-.578V15.741h1.928ZM8.669,27.366a.575.575,0,0,1,0-.818L22.551,12.261h-4a.578.578,0,1,1,0-1.157h5.4a.562.562,0,0,1,.212.042s0,0,.008,0a.586.586,0,0,1,.316.316s0,0,0,.008a.551.551,0,0,1,.042.212v5.4a.578.578,0,0,1-1.157,0V13.078L9.486,27.366a.583.583,0,0,1-.408.17.576.576,0,0,1-.408-.17Z" fill="#4b5569"/></g></g></svg>