<svg xmlns="http://www.w3.org/2000/svg" xmlns:xlink="http://www.w3.org/1999/xlink" width="32" height="32" viewBox="0 0 32 32"><defs><clipPath id="b"><rect width="32" height="32"/></clipPath></defs><g id="a" clip-path="url(#b)"><g transform="translate(-0.166 0.125)"><path d="M8.592,15.892a2.2,2.2,0,1,0-2.2,2.183A2.191,2.191,0,0,0,8.592,15.892Zm-3.426,0A1.229,1.229,0,1,1,6.4,17.112,1.227,1.227,0,0,1,5.167,15.892Zm8.993,0a2.2,2.2,0,1,0-2.2,2.183A2.191,2.191,0,0,0,14.16,15.892Zm-3.426,0a1.229,1.229,0,1,1,1.229,1.22A1.227,1.227,0,0,1,10.734,15.892Zm7.519-1.138a.483.483,0,0,1,.486-.482h.637a.482.482,0,1,1,0,.964h-.637A.486.486,0,0,1,18.252,14.754Zm2.774,0a.483.483,0,0,1,.486-.482h.637a.482.482,0,1,1,0,.964h-.637A.484.484,0,0,1,21.027,14.754Zm2.773,0a.483.483,0,0,1,.486-.482h.637a.482.482,0,1,1,0,.964h-.637A.485.485,0,0,1,23.8,14.754Zm2.771,0a.483.483,0,0,1,.486-.482h.637a.482.482,0,1,1,0,.964h-.637A.485.485,0,0,1,26.571,14.754Zm-8.318,2.28a.483.483,0,0,1,.486-.482h.637a.482.482,0,1,1,0,.964h-.637A.489.489,0,0,1,18.252,17.034Zm2.774,0a.483.483,0,0,1,.486-.482h.637a.482.482,0,1,1,0,.964h-.637A.487.487,0,0,1,21.027,17.034Zm2.773,0a.483.483,0,0,1,.486-.482h.637a.482.482,0,1,1,0,.964h-.637A.488.488,0,0,1,23.8,17.034Zm2.771,0a.483.483,0,0,1,.486-.482h.637a.482.482,0,1,1,0,.964h-.637A.488.488,0,0,1,26.571,17.034Zm2.678,7.453a1.731,1.731,0,0,0-1.661,1.234H24.8V21.1h1.571a5.211,5.211,0,1,0,0-10.421H24.8V6.063h2.783a1.716,1.716,0,1,0,0-.964H24.318a.483.483,0,0,0-.486.482v5.1H19.381V3.864a1.73,1.73,0,1,0-.972,0v6.819H13.961V3.864a1.73,1.73,0,1,0-.972,0v6.819H8.539v-5.1A.483.483,0,0,0,8.052,5.1H4.787a1.716,1.716,0,1,0,0,.964H7.57v4.618H6A5.234,5.234,0,0,0,.75,15.892a5.888,5.888,0,0,0,.034.61.486.486,0,0,0,.966-.106,4.855,4.855,0,0,1-.028-.5A4.27,4.27,0,0,1,6,11.648H26.378a4.248,4.248,0,1,1,0,8.5H6A4.283,4.283,0,0,1,2.08,17.582a.488.488,0,0,0-.639-.249.481.481,0,0,0-.251.634A5.254,5.254,0,0,0,6,21.108H7.575v4.618H4.792a1.716,1.716,0,1,0,0,.964H8.061a.483.483,0,0,0,.486-.482v-5.1H13v6.817a1.73,1.73,0,1,0,.972,0V21.1h4.451v6.817a1.73,1.73,0,1,0,.972,0V21.1H23.84v5.1a.483.483,0,0,0,.486.482H27.6a1.728,1.728,0,1,0,1.653-2.2Zm0-19.659a.756.756,0,1,1-.762.756.759.759,0,0,1,.762-.756ZM18.136,2.216a.762.762,0,1,1,.762.756A.759.759,0,0,1,18.136,2.216Zm-5.419,0a.762.762,0,1,1,.762.756A.759.759,0,0,1,12.717,2.216ZM3.125,6.336a.756.756,0,1,1,.762-.756.759.759,0,0,1-.762.756Zm0,20.619a.756.756,0,1,1,.762-.756A.759.759,0,0,1,3.125,26.956Zm11.112,2.613a.762.762,0,1,1-.762-.756A.759.759,0,0,1,14.238,29.569Zm5.419,0a.762.762,0,1,1-.762-.756A.759.759,0,0,1,19.657,29.569Zm9.592-2.613a.756.756,0,1,1,.762-.756A.759.759,0,0,1,29.249,26.956Z" transform="translate(0 0)" fill="#e65863" stroke="#e65863" stroke-width="0.6"/></g></g></svg>