<svg xmlns="http://www.w3.org/2000/svg" xmlns:xlink="http://www.w3.org/1999/xlink" width="32" height="32" viewBox="0 0 32 32"><defs><clipPath id="b"><rect width="32" height="32"/></clipPath></defs><g id="a" clip-path="url(#b)"><g transform="translate(19.313 -8.639)"><g transform="translate(-19 16.639)"><path d="M1.333,4.639a.546.546,0,0,0-.539.55V9.257a.541.541,0,1,0,1.082,0V5.188a.546.546,0,0,0-.543-.55Zm4.428,0a.534.534,0,0,0-.383.151l-2.1,2.032a.549.549,0,0,0-.064.075.561.561,0,0,0,0,.648.549.549,0,0,0,.065.079l2.1,2.032a.533.533,0,0,0,.762-.02.56.56,0,0,0-.02-.782L5.01,7.775h22.91l-1.112,1.08a.56.56,0,0,0-.017.781.533.533,0,0,0,.762.02l2.088-2.023.01-.01.03-.032a.549.549,0,0,0,.036-.044.56.56,0,0,0-.065-.725l-2.1-2.032a.532.532,0,0,0-.762.019.56.56,0,0,0,.017.778l1.117,1.084H5.005L6.12,5.587a.56.56,0,0,0,.02-.778.535.535,0,0,0-.379-.17Zm25.834,0a.546.546,0,0,0-.538.55V9.257a.54.54,0,1,0,1.081,0V5.188a.546.546,0,0,0-.543-.55ZM1.333,11.371a.546.546,0,0,0-.539.551v8.133a.546.546,0,0,0,.539.55H31.595a.546.546,0,0,0,.543-.55V11.921a.558.558,0,0,0-.159-.39.535.535,0,0,0-.383-.16Zm.543,1.1H5.837v3.514a.558.558,0,0,0,.159.39.535.535,0,0,0,.383.16.546.546,0,0,0,.538-.551V12.475h3.965v1.914a.538.538,0,1,0,1.077,0V12.475h3.965v3.514a.546.546,0,0,0,.538.551.535.535,0,0,0,.383-.16.558.558,0,0,0,.159-.39V12.475h3.961v1.914a.541.541,0,1,0,1.082,0V12.475h3.964v3.514a.546.546,0,0,0,.539.551.535.535,0,0,0,.383-.16.558.558,0,0,0,.159-.39V12.475h3.961V19.5H1.876Z" transform="translate(-0.794 -4.639)" fill="#4b5569" stroke="#4b5569" stroke-width="0.5"/></g></g></g></svg>