<svg xmlns="http://www.w3.org/2000/svg" width="23.636" height="27.889" viewBox="0 0 23.636 27.889"><g transform="translate(-1156.364 -20)"><path d="M16.814,16.145c0,5.844-1.331,7.63-2.143,8.149a2.432,2.432,0,0,0,1.364,4.448h5.422a4.044,4.044,0,0,0,7.922.032H34.8a2.453,2.453,0,0,0,2.435-2.435,2.4,2.4,0,0,0-1.071-2.013c-.812-.552-2.143-2.338-2.143-8.149,0-5.455-3.312-7.63-5.747-8.539a3.978,3.978,0,0,0,.065-.617,2.922,2.922,0,1,0-5.844,0,3.978,3.978,0,0,0,.065.617C20.126,8.483,16.814,10.691,16.814,16.145Zm8.6,14.545a2.8,2.8,0,0,1-2.63-1.916h5.26A2.8,2.8,0,0,1,25.418,30.691ZM35.938,26.34A1.15,1.15,0,0,1,34.8,27.477H16.035A1.15,1.15,0,0,1,14.9,26.34a1.093,1.093,0,0,1,.39-.844H35.613A1.3,1.3,0,0,1,35.938,26.34ZM25.418,5.366A1.608,1.608,0,0,1,27.042,6.99a.715.715,0,0,1-.032.26,8.036,8.036,0,0,0-3.214,0c0-.1-.032-.162-.032-.26A1.656,1.656,0,0,1,25.418,5.366ZM23.7,8.613h.032a6.239,6.239,0,0,1,1.721-.227,5.489,5.489,0,0,1,1.688.26h.032c2.532.714,5.584,2.6,5.584,7.532,0,3.766.519,6.461,1.591,8.052H16.522c1.039-1.623,1.591-4.318,1.591-8.052C18.113,11.21,21.132,9.327,23.7,8.613Z" transform="translate(1142.764 15.9)" fill="#464748"/><path d="M32.546,27.932h.1a.66.66,0,0,0,.649-.552A4.8,4.8,0,0,1,35.565,24.3a.64.64,0,0,0-.649-1.1,6.244,6.244,0,0,0-2.922,4.058A.657.657,0,0,0,32.546,27.932Z" transform="translate(1130.344 3.074)" fill="#6f46ae"/></g></svg>