<svg xmlns="http://www.w3.org/2000/svg" xmlns:xlink="http://www.w3.org/1999/xlink" width="32" height="32" viewBox="0 0 32 32"><defs><clipPath id="b"><rect width="32" height="32"/></clipPath></defs><g id="a" clip-path="url(#b)"><g transform="translate(0.628 0.656)"><path d="M3.792,5.9A.647.647,0,1,1,2.5,5.9V5.265A2.609,2.609,0,0,1,3.264,3.42l0,0A2.6,2.6,0,0,1,5.107,2.65h9.32a2.6,2.6,0,0,1,1.84.768l0,0a2.61,2.61,0,0,1,.765,1.844v9.341a2.609,2.609,0,0,1-.766,1.845l0,0a2.6,2.6,0,0,1-1.839.767H5.107a2.6,2.6,0,0,1-1.84-.768l0,0A2.61,2.61,0,0,1,2.5,14.606V10.358a.647.647,0,1,1,1.294,0v4.249a1.314,1.314,0,0,0,1.313,1.316h9.32a1.314,1.314,0,0,0,1.313-1.316V5.265a1.314,1.314,0,0,0-1.313-1.316H5.105A1.314,1.314,0,0,0,3.792,5.265ZM23.7,24.72a.648.648,0,0,1,.915-.917l1.358,1.361L27.329,23.8a.648.648,0,1,1,.915.917l-1.358,1.361,1.358,1.362a.648.648,0,1,1-.915.917L25.971,27,24.614,28.36a.648.648,0,0,1-.915-.917l1.358-1.362ZM26.54,7.411l.613,1.131,1.259.233a.648.648,0,0,1,.351,1.082l-.884.933.168,1.276a.645.645,0,0,1-.916.668l-1.159-.552-1.158.554a.646.646,0,0,1-.862-.307.639.639,0,0,1-.049-.408l.162-1.23-.884-.933a.647.647,0,0,1,.372-1.086l1.239-.229L25.4,7.411a.646.646,0,0,1,1.138,0Zm-.379,2.021-.19-.351-.191.351a.654.654,0,0,1-.453.327l-.394.073.277.291a.647.647,0,0,1,.172.53l-.052.4.363-.174a.643.643,0,0,1,.556,0l.363.174-.051-.385a.643.643,0,0,1,.171-.542l.277-.291-.348-.065a.647.647,0,0,1-.5-.336ZM9.765,22.983a3.094,3.094,0,1,1-2.186.907l.038-.035a3.079,3.079,0,0,1,2.148-.872Zm1.272,1.823a1.8,1.8,0,0,0-2.515-.027l-.027.028a1.795,1.795,0,1,0,2.542,0ZM10.324,7.163l2.821,4.9a.646.646,0,0,1-.559.968l-5.643,0a.649.649,0,0,1-.527-1.025l2.79-4.844a.644.644,0,0,1,1.117,0Zm.293,3.093L9.765,8.778l-1.7,2.957h3.406l-.852-1.479Zm10.694,8.539h9.32a2.6,2.6,0,0,1,1.84.768l0,0a2.61,2.61,0,0,1,.765,1.844v9.342a2.609,2.609,0,0,1-.766,1.845l0,0a2.6,2.6,0,0,1-1.839.767h-9.32a2.6,2.6,0,0,1-1.84-.768l0,0a2.61,2.61,0,0,1-.765-1.844V21.41a2.609,2.609,0,0,1,.766-1.845l0,0a2.6,2.6,0,0,1,1.839-.767Zm9.32,1.3h-9.32A1.314,1.314,0,0,0,20,21.409v9.342a1.314,1.314,0,0,0,1.313,1.316h9.32a1.314,1.314,0,0,0,1.313-1.316V21.409a1.314,1.314,0,0,0-1.313-1.316Zm-25.525-1.3h9.32a2.6,2.6,0,0,1,1.84.768l0,0a2.61,2.61,0,0,1,.765,1.844v9.342a2.609,2.609,0,0,1-.766,1.845l0,0a2.6,2.6,0,0,1-1.839.767H5.106a2.6,2.6,0,0,1-1.84-.768l0,0A2.61,2.61,0,0,1,2.5,30.752V21.41a2.609,2.609,0,0,1,.766-1.845l0,0a2.6,2.6,0,0,1,1.839-.767Zm9.32,1.3H5.106a1.314,1.314,0,0,0-1.313,1.316v9.342a1.314,1.314,0,0,0,1.313,1.316h9.32a1.314,1.314,0,0,0,1.313-1.316V21.409a1.314,1.314,0,0,0-1.313-1.316ZM21.312,2.649h9.32a2.6,2.6,0,0,1,1.84.768l0,0a2.61,2.61,0,0,1,.765,1.844V14.6a2.609,2.609,0,0,1-.766,1.845l0,0a2.6,2.6,0,0,1-1.839.767h-9.32a2.6,2.6,0,0,1-1.84-.768l0,0A2.61,2.61,0,0,1,18.7,14.6V5.264a2.609,2.609,0,0,1,.766-1.845l0,0a2.6,2.6,0,0,1,1.839-.767Zm9.32,1.3h-9.32A1.314,1.314,0,0,0,20,5.263V14.6a1.314,1.314,0,0,0,1.313,1.316h9.32A1.314,1.314,0,0,0,31.945,14.6V5.263a1.314,1.314,0,0,0-1.313-1.316ZM3.792,8.156a.647.647,0,1,1-1.294,0V8.1a.647.647,0,1,1,1.294,0Z" transform="translate(-2.497 -2.649)" fill="#e65863" stroke="#e65863" stroke-width="0.6"/></g></g></svg>