<svg xmlns="http://www.w3.org/2000/svg" xmlns:xlink="http://www.w3.org/1999/xlink" width="32" height="27" viewBox="0 0 32 27"><defs><clipPath id="b"><rect width="32" height="27"/></clipPath></defs><g id="a" clip-path="url(#b)"><g transform="translate(-931.25 -355)"><path d="M8.482,22.941c0-3.485,2.16-6.308,4.827-6.308H35.655c2.667,0,4.827,2.823,4.827,6.308a1,1,0,1,1-1.931,0c0-2.091-1.3-3.785-2.9-3.785H13.309c-1.6,0-2.9,1.694-2.9,3.785A1.145,1.145,0,0,1,9.448,24.2a1.144,1.144,0,0,1-.965-1.262Zm4.826,20.692c-2.667,0-4.827-2.824-4.827-6.308a1.143,1.143,0,0,1,.965-1.262,1.144,1.144,0,0,1,.965,1.262c0,2.091,1.3,3.785,2.9,3.785H35.655c1.6,0,2.9-1.694,2.9-3.785a1,1,0,1,1,1.931,0c0,3.484-2.16,6.308-4.827,6.308Z" transform="translate(922.768 338.367)" fill="#f25b67" fill-rule="evenodd"/><path d="M10.328,28.253a.662.662,0,1,0,1.311,0V27.127l.849.563a.613.613,0,0,0,.9-.276.821.821,0,0,0-.24-1.031L12.3,25.82l.849-.563a.821.821,0,0,0,.24-1.031.613.613,0,0,0-.9-.276l-.849.563V23.387a.662.662,0,1,0-1.311,0v1.126l-.849-.563a.613.613,0,0,0-.9.276.821.821,0,0,0,.241,1.031l.848.563-.848.563a.819.819,0,0,0-.241,1.031.613.613,0,0,0,.9.276l.849-.563Zm7.71.755a.711.711,0,0,1-.657-.755V27.127l-.848.563a.612.612,0,0,1-.9-.276.82.82,0,0,1,.24-1.031l.849-.563-.849-.563a.821.821,0,0,1-.24-1.031.612.612,0,0,1,.9-.276l.848.563V23.387a.663.663,0,1,1,1.312,0v1.126l.849-.563a.611.611,0,0,1,.9.276.819.819,0,0,1-.24,1.031l-.849.563.849.563a.819.819,0,0,1,.24,1.031.611.611,0,0,1-.9.276l-.849-.563v1.126A.711.711,0,0,1,18.038,29.008Zm6.4-.755a.663.663,0,1,0,1.312,0V27.127l.848.563a.612.612,0,0,0,.9-.276.82.82,0,0,0-.24-1.031L26.4,25.82l.849-.563a.821.821,0,0,0,.24-1.031.611.611,0,0,0-.9-.276l-.849.563V23.387a.663.663,0,1,0-1.312,0v1.126l-.849-.563a.611.611,0,0,0-.9.276.819.819,0,0,0,.24,1.031l.849.563-.849.563a.819.819,0,0,0-.24,1.031.611.611,0,0,0,.9.276l.849-.563Zm7.054,0a.662.662,0,1,0,1.311,0V27.127l.849.563a.613.613,0,0,0,.9-.276.821.821,0,0,0-.24-1.031l-.849-.563.848-.563a.819.819,0,0,0,.241-1.031.613.613,0,0,0-.9-.276l-.849.563V23.387a.662.662,0,1,0-1.311,0v1.126l-.849-.563a.613.613,0,0,0-.9.276.821.821,0,0,0,.24,1.031l.849.563-.849.563a.821.821,0,0,0-.24,1.031.613.613,0,0,0,.9.276l.849-.563Z" transform="translate(925.685 342.68)" fill="#f25b67" fill-rule="evenodd"/></g></g></svg>