<svg xmlns="http://www.w3.org/2000/svg" xmlns:xlink="http://www.w3.org/1999/xlink" width="32" height="32" viewBox="0 0 32 32"><defs><clipPath id="b"><rect width="32" height="32"/></clipPath></defs><g id="a" clip-path="url(#b)"><g transform="translate(-5.231 -6.492)"><path d="M13.286,27.827a2.5,2.5,0,1,0-2.5,2.574A2.542,2.542,0,0,0,13.286,27.827Zm-3.574,0a1.073,1.073,0,1,1,1.072,1.1A1.091,1.091,0,0,1,9.712,27.827ZM32.6,10.684a.727.727,0,0,1,0-.287.683.683,0,0,1,.039-.14.842.842,0,0,1,.068-.125.521.521,0,0,1,.089-.11A.513.513,0,0,1,32.9,9.93a.8.8,0,0,1,.122-.07.579.579,0,0,1,.136-.04.7.7,0,0,1,.643.2.743.743,0,0,1,0,1.037.693.693,0,0,1-.5.217.6.6,0,0,1-.139-.015.608.608,0,0,1-.257-.11.513.513,0,0,1-.107-.092.521.521,0,0,1-.089-.11.841.841,0,0,1-.068-.125A.623.623,0,0,1,32.6,10.684Zm-.55,5.741H30.44a.736.736,0,0,0,0,1.471h2.452l.407.714,3.363-5.885a4.287,4.287,0,0,0,.1-4.068A3.86,3.86,0,0,0,33.65,6.506a4.454,4.454,0,0,0-.7,0A3.847,3.847,0,0,0,29.84,8.658a4.286,4.286,0,0,0,.1,4.068Zm-.94-7.087a2.394,2.394,0,0,1,1.955-1.361q.118-.011.236-.011t.236.011A2.389,2.389,0,0,1,35.49,9.338a2.786,2.786,0,0,1-.061,2.644L33.3,15.712l-2.13-3.729A2.786,2.786,0,0,1,31.109,9.338ZM27.581,28.195H24.722a.736.736,0,0,1,0-1.471h2.859a.736.736,0,0,1,0,1.471Zm-7.862,9.562a.728.728,0,0,1-.715.736H16.145a.736.736,0,0,1,0-1.471H19A.725.725,0,0,1,19.719,37.757Zm4.289-20.6a.728.728,0,0,1,.715-.736h2.859a.736.736,0,0,1,0,1.471H24.722A.728.728,0,0,1,24.007,17.161ZM28.3,21.574a.736.736,0,0,1,0,1.471H25.437a.736.736,0,0,1,0-1.471Zm5.718,5.885a.728.728,0,0,1-.715.736H30.44a.736.736,0,0,1,0-1.471H33.3A.725.725,0,0,1,34.014,27.459ZM22.578,21.574a.736.736,0,0,1,0,1.471H19.719a.736.736,0,0,1,0-1.471Zm14.653,3.31a3.369,3.369,0,0,1-.786,2.17.7.7,0,0,1-1.008.074.753.753,0,0,1-.071-1.037,1.885,1.885,0,0,0,.275-1.968.743.743,0,0,1,.354-.975.706.706,0,0,1,.947.364A3.322,3.322,0,0,1,37.23,24.884Zm-2.5-2.574a.728.728,0,0,1-.715.736H31.155a.736.736,0,0,1,0-1.471h2.859A.725.725,0,0,1,34.729,22.31Zm-10.007,10.3a.728.728,0,0,1,.715-.736H28.3a.736.736,0,0,1,0,1.471H25.437A.728.728,0,0,1,24.722,32.608Zm.715,5.149a.728.728,0,0,1-.715.736H21.863a.736.736,0,0,1,0-1.471h2.859A.725.725,0,0,1,25.437,37.757Zm5.679-.313a.739.739,0,0,1-.486.912,3.136,3.136,0,0,1-.908.132H27.578a.736.736,0,0,1,0-1.471h2.144a1.778,1.778,0,0,0,.5-.074A.714.714,0,0,1,31.116,37.444ZM19.433,32.2a.753.753,0,0,1,.071-1.037.7.7,0,0,1,1.008.074,1.764,1.764,0,0,0,1.351.636h.715a.736.736,0,0,1,0,1.471h-.715A3.171,3.171,0,0,1,19.433,32.2Zm13.509,2.983a3.419,3.419,0,0,1-.032.467.722.722,0,0,1-.708.633.916.916,0,0,1-.1-.007.732.732,0,0,1-.608-.831,2.2,2.2,0,0,0,.018-.265,1.849,1.849,0,0,0-.822-1.548.746.746,0,0,1-.214-1.015.7.7,0,0,1,.986-.221A3.32,3.32,0,0,1,32.942,35.182ZM13.286,37.021H12.021l3.549-6.33a6.026,6.026,0,0,0,.082-5.741A5.441,5.441,0,0,0,11.2,21.957a6.238,6.238,0,0,0-.829,0,5.449,5.449,0,0,0-4.453,2.994A6.035,6.035,0,0,0,6,30.692l4.167,7.429a.051.051,0,0,0,.011.015.779.779,0,0,0,.1.14h0a.615.615,0,0,0,.132.1.387.387,0,0,1,.039.022.577.577,0,0,0,.118.051c.014,0,.029.011.043.015a.646.646,0,0,0,.172.022h2.5a.734.734,0,0,0,0-1.467ZM7.178,25.642a3.965,3.965,0,0,1,3.288-2.218c.107-.007.211-.011.318-.011s.214,0,.318.011a3.98,3.98,0,0,1,3.288,2.218,4.528,4.528,0,0,1-.061,4.314l-3.545,6.326L7.239,29.956A4.528,4.528,0,0,1,7.178,25.642ZM19.587,29.7a.71.71,0,0,1-.3-.066.747.747,0,0,1-.354-.975,3.223,3.223,0,0,1,2.927-1.935.736.736,0,0,1,0,1.471,1.793,1.793,0,0,0-1.626,1.074A.709.709,0,0,1,19.587,29.7Zm-1.3-12.538A.728.728,0,0,1,19,16.425h2.859a.736.736,0,0,1,0,1.471H19A.728.728,0,0,1,18.289,17.161ZM16.574,21.9a3.39,3.39,0,0,1-.5-3.542A.708.708,0,0,1,17.024,18a.747.747,0,0,1,.354.975,1.885,1.885,0,0,0,.275,1.968.753.753,0,0,1-.071,1.037.7.7,0,0,1-1.008-.074Z" transform="translate(0 0)" fill="#4b5569"/></g></g></svg>