<svg xmlns="http://www.w3.org/2000/svg" xmlns:xlink="http://www.w3.org/1999/xlink" width="32" height="32" viewBox="0 0 32 32"><defs><clipPath id="b"><rect width="32" height="32"/></clipPath></defs><g id="a" clip-path="url(#b)"><g transform="translate(-1.834 -12.265)"><path d="M40.047,35.647v5.811a.571.571,0,1,1-1.14,0V35.647a2.564,2.564,0,0,0-2.485-2.631H33.4a.6.6,0,0,1,0-1.207h3.026A3.741,3.741,0,0,1,40.047,35.647ZM15.722,32.413a.588.588,0,0,0-.57-.6H12.126A3.74,3.74,0,0,0,8.5,35.647v5.811a.571.571,0,1,0,1.14,0V35.647a2.564,2.564,0,0,1,2.485-2.631h3.026A.588.588,0,0,0,15.722,32.413Zm-.38-16.092a.6.6,0,0,1,.376-.567l8.362-3.218a.544.544,0,0,1,.392,0l8.362,3.218s0,0,.007,0a.574.574,0,0,1,.134.077.073.073,0,0,0,.027.02.646.646,0,0,1,.1.108l.012.013a.671.671,0,0,1,.068.145l.012.036a.605.605,0,0,1,.022.165v4.023a.571.571,0,1,1-1.14,0V17.184L29.409,18.21v5.353c0,3.159-2.156,6.846-5.131,6.846s-5.136-3.687-5.136-6.846V18.208l-3.425-1.32a.6.6,0,0,1-.376-.567Zm12.9,7.845H20.31c.239,2.788,2.049,5.035,3.964,5.035S28,26.954,28.238,24.166Zm.027-5.519-3.8,1.46a.567.567,0,0,1-.194.036.548.548,0,0,1-.194-.036l-3.8-1.46v4.312h7.982ZM17.581,16.321,24.274,18.9l6.693-2.574-6.693-2.574Zm9.7,16.293h-6a6.118,6.118,0,0,0-5.93,6.277v4.177a.571.571,0,1,0,1.14,0V38.891a4.94,4.94,0,0,1,4.79-5.07h6.006a4.94,4.94,0,0,1,4.79,5.07v4.177a.571.571,0,1,0,1.14,0V38.891a6.118,6.118,0,0,0-5.93-6.277ZM10.021,25.976a3.725,3.725,0,0,1,3.611-3.822,3.725,3.725,0,0,1,3.611,3.822c0,2.1-1.611,4.626-3.611,4.626S10.021,28.072,10.021,25.976Zm1.14,0c0,1.509,1.163,3.42,2.471,3.42s2.471-1.911,2.471-3.42a2.552,2.552,0,0,0-2.471-2.615A2.552,2.552,0,0,0,11.161,25.976Zm23.755-3.822a3.725,3.725,0,0,1,3.611,3.822c0,2.1-1.611,4.626-3.611,4.626s-3.611-2.53-3.611-4.626A3.725,3.725,0,0,1,34.916,22.154Zm-2.471,3.822c0,1.509,1.163,3.42,2.471,3.42s2.471-1.911,2.471-3.42a2.475,2.475,0,1,0-4.941,0ZM20.473,39.051a.588.588,0,0,0-.57.6v3.413a.571.571,0,1,0,1.14,0V39.654A.588.588,0,0,0,20.473,39.051Zm7.6,0a.588.588,0,0,0-.57.6v3.413a.571.571,0,1,0,1.14,0V39.654A.588.588,0,0,0,28.075,39.051Z" transform="translate(-6.432 0)" fill="#e65863" stroke="#e65863" stroke-width="0.5"/></g></g></svg>