<svg xmlns="http://www.w3.org/2000/svg" xmlns:xlink="http://www.w3.org/1999/xlink" width="32" height="32" viewBox="0 0 32 32"><defs><clipPath id="b"><rect width="32" height="32"/></clipPath></defs><g id="a" clip-path="url(#b)"><g transform="translate(-2 -2.8)"><path d="M9,25.133A2.133,2.133,0,0,1,11.133,23h9.6a2.133,2.133,0,0,1,2.133,2.133V35.8a2.133,2.133,0,0,1-2.133,2.133h-9.6A2.133,2.133,0,0,1,9,35.8Zm12.225-.383H10.683V36.375H21.225Z" transform="translate(-3.267 -7.867)" fill="#4b5569" fill-rule="evenodd"/><path d="M41.067,30.133A1.067,1.067,0,1,0,40,29.067,1.067,1.067,0,0,0,41.067,30.133Z" transform="translate(-17.733 -10.2)" fill="#4b5569"/><path d="M49.067,30.133A1.067,1.067,0,1,0,48,29.067,1.067,1.067,0,0,0,49.067,30.133Z" transform="translate(-21.467 -10.2)" fill="#4b5569"/><path d="M42.133,36.067A1.067,1.067,0,1,1,41.067,35,1.067,1.067,0,0,1,42.133,36.067Z" transform="translate(-17.733 -13.467)" fill="#4b5569"/><path d="M50.133,36.067A1.067,1.067,0,1,1,49.067,35,1.067,1.067,0,0,1,50.133,36.067Z" transform="translate(-21.467 -13.467)" fill="#4b5569"/><path d="M41.067,44.133A1.067,1.067,0,1,0,40,43.067,1.067,1.067,0,0,0,41.067,44.133Z" transform="translate(-17.733 -16.733)" fill="#4b5569"/><path d="M49.067,44.133A1.067,1.067,0,1,0,48,43.067,1.067,1.067,0,0,0,49.067,44.133Z" transform="translate(-21.467 -16.733)" fill="#4b5569"/><path d="M25.578,3.027A3.275,3.275,0,0,0,22.267,6.2v4.2H7.333A5.333,5.333,0,0,0,2,15.733V29.467A5.333,5.333,0,0,0,7.333,34.8H28.667A5.333,5.333,0,0,0,34,29.467V15.733A5.333,5.333,0,0,0,28.667,10.4V6.2A3.084,3.084,0,0,0,25.578,3.027ZM27.292,10.4V5.956a1.688,1.688,0,0,0-1.714-1.391,1.738,1.738,0,0,0-1.745,1.391V10.4ZM3.417,15.733a4.491,4.491,0,0,1,3.917-3.85H28.667c1.767,0,3.958,2.083,3.958,3.85V29.467a4.6,4.6,0,0,1-3.958,3.917H7.333a4.56,4.56,0,0,1-3.917-3.917Z" fill="#4b5569" fill-rule="evenodd"/></g></g></svg>