<svg xmlns="http://www.w3.org/2000/svg" xmlns:xlink="http://www.w3.org/1999/xlink" width="32" height="32" viewBox="0 0 32 32"><defs><clipPath id="b"><rect width="32" height="32"/></clipPath></defs><g id="a" clip-path="url(#b)"><g transform="translate(-8.331 -16.631)"><path d="M38.768,54.168h-3.2a6.4,6.4,0,0,0-6.4,6.4v9.505a1.6,1.6,0,0,0,1.6,1.6h12.8a1.6,1.6,0,0,0,1.6-1.6V60.567a6.4,6.4,0,0,0-6.4-6.4Zm4.8,15.1v0a.8.8,0,0,1-.8.8h-11.2a.8.8,0,0,1-.8-.8v-8.7a4.8,4.8,0,0,1,4.8-4.8h3.2a4.8,4.8,0,0,1,4.8,4.8Z" transform="translate(-12.836 -23.123)" fill="#e65863"/><path d="M14.907,57.051H10.731a.8.8,0,0,1-.8-.8v-.8a1.283,1.283,0,0,1,0-.24c.087-1.236.663-5.388,1.6-6.2a3.4,3.4,0,0,1,.384-.336l.352-.24h0a4.732,4.732,0,0,1,.64-.336,5.05,5.05,0,0,1,.832-.273,5.274,5.274,0,0,1,2,0h.079a5.05,5.05,0,0,1,.832.273,3.89,3.89,0,0,1,.64.336l.352.24.384.336.175.192a8.139,8.139,0,0,1,1.327-.849,6.4,6.4,0,0,0-9.165-.45c-1.264,1.179-2,5.818-2.035,7.546v1.6a1.6,1.6,0,0,0,1.6,1.6h4.8a7.851,7.851,0,0,1,.175-1.6Z" transform="translate(0 -18.207)" fill="#e65863"/><path d="M19.367,25.748a7.753,7.753,0,0,1-.415-1.6,3.2,3.2,0,1,1,.8-4.687,8.107,8.107,0,0,1,.912-1.408,4.8,4.8,0,1,0-1.311,7.7Z" transform="translate(-2.539 0)" fill="#e65863"/><path d="M67.3,45.832a6.4,6.4,0,0,0-4.8,2.3,8.111,8.111,0,0,1,1.456.784l.175-.192a3.56,3.56,0,0,1,.384-.336l.352-.24a4.891,4.891,0,0,1,.639-.336,5.091,5.091,0,0,1,.832-.271,5.213,5.213,0,0,1,2,0h.081a5.077,5.077,0,0,1,.831.271,4.068,4.068,0,0,1,.64.336l.352.24.384.336c.936.811,1.512,4.963,1.6,6.2a3.461,3.461,0,0,1,0,.432v.609a.8.8,0,0,1-.8.8h-4.3a7.952,7.952,0,0,1,.175,1.663h4.8a1.6,1.6,0,0,0,1.6-1.6v-1.6c0-1.7-.675-6.325-1.875-7.525A6.4,6.4,0,0,0,67.3,45.832Z" transform="translate(-33.369 -17.988)" fill="#e65863"/><path d="M69.559,16.666a4.794,4.794,0,0,0-3.391,1.407,8.107,8.107,0,0,1,.912,1.408,3.2,3.2,0,1,1,.879,4.687,7.754,7.754,0,0,1-.415,1.6,4.8,4.8,0,1,0,2.016-9.1Z" transform="translate(-35.628 -0.021)" fill="#e65863"/><path d="M39.732,29.467a6.4,6.4,0,1,0-4.525-1.875A6.4,6.4,0,0,0,39.732,29.467Zm0-11.2a4.8,4.8,0,1,1-4.8,4.8,4.8,4.8,0,0,1,4.8-4.8Z" transform="translate(-15.401 -0.023)" fill="#e65863"/></g></g></svg>