<svg xmlns="http://www.w3.org/2000/svg" width="23.008" height="26.625" viewBox="0 0 23.008 26.625"><path d="M19.983,14.885a10.04,10.04,0,0,1,10.029,10.03v1.057a.685.685,0,0,1-.583.687,58.678,58.678,0,0,1-9.446.739,58.674,58.674,0,0,1-9.446-.739.685.685,0,0,1-.584-.687V24.915A10.041,10.041,0,0,1,19.983,14.885ZM15.168,8.537a4.815,4.815,0,1,1,4.815,4.815,4.815,4.815,0,0,1-4.815-4.815ZM8.729,24.915v1.057a1.913,1.913,0,0,0,1.61,1.9,59.9,59.9,0,0,0,9.643.755,59.9,59.9,0,0,0,9.643-.755,1.914,1.914,0,0,0,1.61-1.9V24.915a11.305,11.305,0,0,0-8.621-10.943,6.04,6.04,0,1,0-5.264,0A11.305,11.305,0,0,0,8.731,24.915Z" transform="translate(-8.479 -2.247)" fill="#464748" stroke="#464748" stroke-width="0.5" fill-rule="evenodd"/></svg>