<svg xmlns="http://www.w3.org/2000/svg" xmlns:xlink="http://www.w3.org/1999/xlink" width="32" height="32" viewBox="0 0 32 32"><defs><clipPath id="b"><rect width="32" height="32"/></clipPath></defs><g id="a" clip-path="url(#b)"><g transform="translate(0.417)"><path d="M24.312,18.964c7.667.008,13.345,4.21,13.353,10.992V31.25a.877.877,0,0,1-.808.841,84.176,84.176,0,0,1-12.546.627,87.2,87.2,0,0,1-12.754-.959.989.989,0,0,1-.856-.91V29.383C12.163,22.563,16.646,18.972,24.312,18.964ZM17.931,9.9c0-3.257,2.7-5.431,6.382-5.431S30.828,6.638,30.828,9.9a6.689,6.689,0,0,1-6.515,6.52A6.577,6.577,0,0,1,17.931,9.9Zm-9.2,20.061V31.25a2.45,2.45,0,0,0,2.23,2.322,93.544,93.544,0,0,0,13.353.924,93.545,93.545,0,0,0,13.353-.924,2.45,2.45,0,0,0,2.23-2.321V29.957c-.025-6.363-4.949-10.893-11.937-12.4a8.4,8.4,0,0,0,4.507-9.312C31.593,4.88,28.212,2.5,24.314,2.5s-7.28,2.383-8.151,5.744a8.4,8.4,0,0,0,4.507,9.312c-6.988,1.511-11.913,6.04-11.937,12.4Z" transform="translate(-8.729 -2.497)" fill="#f25b67" fill-rule="evenodd"/></g></g></svg>