<svg xmlns="http://www.w3.org/2000/svg" xmlns:xlink="http://www.w3.org/1999/xlink" width="32" height="32" viewBox="0 0 32 32"><defs><clipPath id="b"><rect width="32" height="32"/></clipPath></defs><g id="a" clip-path="url(#b)"><g transform="translate(-5.52 -9.375)"><path d="M31.925,9.375a11.738,11.738,0,0,0-3.963,22.788l1.665,6.751H28.4a1.231,1.231,0,1,0,0,2.462h7.052a1.231,1.231,0,0,0,0-2.462H34.221l1.665-6.752A11.736,11.736,0,0,0,31.924,9.375Zm0,28.576-1.272-5.16c.023,0,.048,0,.071,0,.386.04.778.063,1.175.065l.083,0q.577,0,1.137-.062c.025,0,.052,0,.077,0l-1.271,5.16Zm2.569-7.918a7.743,7.743,0,0,1-.848.2,9.311,9.311,0,0,1-3.454,0,7.7,7.7,0,0,1-.858-.206,9.28,9.28,0,1,1,5.16.006Z" transform="translate(-10.665)" fill="#4b5569"/><path d="M41.556,25.258a5.486,5.486,0,1,0,5.486,5.486A5.493,5.493,0,0,0,41.556,25.258Zm0,8.512a3.025,3.025,0,1,1,3.025-3.025A3.028,3.028,0,0,1,41.556,33.77Z" transform="translate(-20.294 -9.628)" fill="#4b5569"/></g></g></svg>