<svg xmlns="http://www.w3.org/2000/svg" xmlns:xlink="http://www.w3.org/1999/xlink" width="32" height="32" viewBox="0 0 32 32"><defs><clipPath id="b"><rect width="32" height="32"/></clipPath></defs><g id="a" clip-path="url(#b)"><path d="M2.933,0A2.933,2.933,0,1,1,0,2.933,2.933,2.933,0,0,1,2.933,0Z" transform="translate(13.067 11.77)" fill="#1b428a"/><path d="M22.059,1.76A16,16,0,1,0,17.135,33c.465,0,.936-.02,1.408-.061A16.02,16.02,0,0,0,33.1,15.606a1.308,1.308,0,0,0-2.606.229A13.39,13.39,0,1,1,21.253,4.257a1.312,1.312,0,1,0,.806-2.5Z" transform="translate(-1.16 -0.998)" fill="#1b428a"/><path d="M24.712,43.247a1.258,1.258,0,0,0,0,1.5c.177.25,4.41,5.92,9.9,5.92s9.724-5.67,9.9-5.92a1.258,1.258,0,0,0,0-1.5c-.177-.25-4.41-5.917-9.9-5.917S24.889,43,24.712,43.247ZM41.75,44a17.05,17.05,0,0,1-1.8,1.75,8.911,8.911,0,0,1-5.337,2.342,8.861,8.861,0,0,1-5.34-2.342,17.048,17.048,0,0,1-1.8-1.75,17.048,17.048,0,0,1,1.8-1.75A8.911,8.911,0,0,1,34.613,39.9a8.868,8.868,0,0,1,5.337,2.342,17.049,17.049,0,0,1,1.8,1.75Z" transform="translate(-18.638 -27.997)" fill="#1b428a"/></g></svg>