<svg xmlns="http://www.w3.org/2000/svg" xmlns:xlink="http://www.w3.org/1999/xlink" width="32" height="32" viewBox="0 0 32 32"><defs><clipPath id="b"><rect width="32" height="32"/></clipPath></defs><g id="a" clip-path="url(#b)"><g transform="translate(-3.594 -4.313)"><path d="M34.723,9.257a.561.561,0,0,0,.559-.563V5.313a.561.561,0,0,0-.559-.563H31.371a.561.561,0,0,0-.559.563V6.44H8.469V5.313A.561.561,0,0,0,7.91,4.75H4.559A.561.561,0,0,0,4,5.313v3.38a.561.561,0,0,0,.559.563H5.676V31.493H4.559A.561.561,0,0,0,4,32.056v3.38A.561.561,0,0,0,4.559,36H7.91a.561.561,0,0,0,.559-.563V34.31l21.785-1.969v1.127a.561.561,0,0,0,.559.563h3.352a.561.561,0,0,0,.559-.563v-3.38a.561.561,0,0,0-.559-.563H33.047l.559-20.267ZM31.93,5.877h2.234V8.13H31.93Zm-26.812,0H7.352V8.13H5.117Zm2.234,29H5.117V32.62H7.352ZM33.605,32.9H31.371V30.651h2.234Zm-1.676-3.38H30.813a.561.561,0,0,0-.559.563v1.127L8.469,33.183V32.056a.561.561,0,0,0-.559-.563H6.793V9.257H7.91a.561.561,0,0,0,.559-.563V7.567H30.812V8.694a.561.561,0,0,0,.559.563h1.117Z" fill="#4b5569" stroke="#4b5569" stroke-width="0.5"/></g></g></svg>